<mxfile host="app.diagrams.net" modified="2024-05-18T13:17:39.188Z" agent="Mozilla/5.0 (Windows NT 10.0; Win64; x64) AppleWebKit/537.36 (KHTML, like Gecko) Chrome/125.0.0.0 Safari/537.36" etag="MgPE58G_bLlV4TdRV9Hh" version="24.4.4" type="google">
  <diagram name="PÃ¡gina-1" id="JynM5rXX0GK54_x-ZJID">
    <mxGraphModel grid="1" page="1" gridSize="10" guides="1" tooltips="1" connect="1" arrows="1" fold="1" pageScale="1" pageWidth="1169" pageHeight="827" math="0" shadow="0">
      <root>
        <mxCell id="0" />
        <mxCell id="1" parent="0" />
        <mxCell id="TTPus0jQ23hokHO_4xcf-13" style="edgeStyle=orthogonalEdgeStyle;rounded=0;orthogonalLoop=1;jettySize=auto;html=1;entryX=1;entryY=0.5;entryDx=0;entryDy=0;" edge="1" parent="1" source="1T6MPeweJr3BxvkpQle7-1" target="TTPus0jQ23hokHO_4xcf-2">
          <mxGeometry relative="1" as="geometry">
            <Array as="points">
              <mxPoint x="120" y="730" />
              <mxPoint x="120" y="670" />
            </Array>
          </mxGeometry>
        </mxCell>
        <mxCell id="TTPus0jQ23hokHO_4xcf-14" style="edgeStyle=orthogonalEdgeStyle;rounded=0;orthogonalLoop=1;jettySize=auto;html=1;entryX=1;entryY=0.5;entryDx=0;entryDy=0;" edge="1" parent="1" source="1T6MPeweJr3BxvkpQle7-1" target="TTPus0jQ23hokHO_4xcf-4">
          <mxGeometry relative="1" as="geometry">
            <Array as="points">
              <mxPoint x="190" y="771" />
              <mxPoint x="190" y="771" />
            </Array>
          </mxGeometry>
        </mxCell>
        <mxCell id="TTPus0jQ23hokHO_4xcf-15" style="edgeStyle=orthogonalEdgeStyle;rounded=0;orthogonalLoop=1;jettySize=auto;html=1;entryX=1;entryY=0.5;entryDx=0;entryDy=0;" edge="1" parent="1" source="1T6MPeweJr3BxvkpQle7-1" target="TTPus0jQ23hokHO_4xcf-5">
          <mxGeometry relative="1" as="geometry">
            <Array as="points">
              <mxPoint x="190" y="878" />
              <mxPoint x="190" y="878" />
            </Array>
          </mxGeometry>
        </mxCell>
        <mxCell id="TTPus0jQ23hokHO_4xcf-16" style="edgeStyle=orthogonalEdgeStyle;rounded=0;orthogonalLoop=1;jettySize=auto;html=1;entryX=1;entryY=0.5;entryDx=0;entryDy=0;" edge="1" parent="1" source="1T6MPeweJr3BxvkpQle7-1" target="TTPus0jQ23hokHO_4xcf-7">
          <mxGeometry relative="1" as="geometry">
            <Array as="points">
              <mxPoint x="116" y="920" />
              <mxPoint x="116" y="980" />
            </Array>
          </mxGeometry>
        </mxCell>
        <mxCell id="1T6MPeweJr3BxvkpQle7-1" value="&lt;span style=&quot;font-weight: 700; text-wrap: wrap;&quot;&gt;Publicista&lt;/span&gt;" style="shape=umlActor;verticalLabelPosition=bottom;verticalAlign=top;html=1;outlineConnect=0;" vertex="1" parent="1">
          <mxGeometry x="220" y="680" width="130" height="290" as="geometry" />
        </mxCell>
        <mxCell id="TTPus0jQ23hokHO_4xcf-1" value="Gestion de produccion" style="swimlane;whiteSpace=wrap;html=1;" vertex="1" parent="1">
          <mxGeometry x="-330" y="590" width="426" height="450" as="geometry" />
        </mxCell>
        <mxCell id="TTPus0jQ23hokHO_4xcf-2" value="&lt;font size=&quot;1&quot;&gt;Generar orden&lt;/font&gt;" style="ellipse;whiteSpace=wrap;html=1;" vertex="1" parent="TTPus0jQ23hokHO_4xcf-1">
          <mxGeometry x="222" y="40" width="120" height="80" as="geometry" />
        </mxCell>
        <mxCell id="TTPus0jQ23hokHO_4xcf-3" style="edgeStyle=orthogonalEdgeStyle;rounded=0;orthogonalLoop=1;jettySize=auto;html=1;entryX=0;entryY=0.5;entryDx=0;entryDy=0;dashed=1;" edge="1" parent="TTPus0jQ23hokHO_4xcf-1" source="TTPus0jQ23hokHO_4xcf-4" target="TTPus0jQ23hokHO_4xcf-5">
          <mxGeometry relative="1" as="geometry">
            <Array as="points">
              <mxPoint x="202" y="183" />
              <mxPoint x="202" y="288" />
            </Array>
          </mxGeometry>
        </mxCell>
        <mxCell id="TTPus0jQ23hokHO_4xcf-4" value="&lt;font size=&quot;1&quot;&gt;editar orden&lt;/font&gt;" style="ellipse;whiteSpace=wrap;html=1;" vertex="1" parent="TTPus0jQ23hokHO_4xcf-1">
          <mxGeometry x="222" y="141" width="120" height="80" as="geometry" />
        </mxCell>
        <mxCell id="TTPus0jQ23hokHO_4xcf-5" value="&lt;font size=&quot;1&quot;&gt;Consultar orden&lt;/font&gt;" style="ellipse;whiteSpace=wrap;html=1;" vertex="1" parent="TTPus0jQ23hokHO_4xcf-1">
          <mxGeometry x="222" y="248" width="120" height="80" as="geometry" />
        </mxCell>
        <mxCell id="TTPus0jQ23hokHO_4xcf-6" style="edgeStyle=orthogonalEdgeStyle;rounded=0;orthogonalLoop=1;jettySize=auto;html=1;dashed=1;" edge="1" parent="TTPus0jQ23hokHO_4xcf-1" source="TTPus0jQ23hokHO_4xcf-7" target="TTPus0jQ23hokHO_4xcf-5">
          <mxGeometry relative="1" as="geometry" />
        </mxCell>
        <mxCell id="TTPus0jQ23hokHO_4xcf-7" value="&lt;font size=&quot;1&quot;&gt;Eliminar orden&lt;/font&gt;" style="ellipse;whiteSpace=wrap;html=1;" vertex="1" parent="TTPus0jQ23hokHO_4xcf-1">
          <mxGeometry x="222" y="350" width="120" height="80" as="geometry" />
        </mxCell>
        <mxCell id="TTPus0jQ23hokHO_4xcf-8" value="" style="edgeStyle=orthogonalEdgeStyle;rounded=0;orthogonalLoop=1;jettySize=auto;html=1;dashed=1;" edge="1" parent="TTPus0jQ23hokHO_4xcf-1" source="TTPus0jQ23hokHO_4xcf-9" target="TTPus0jQ23hokHO_4xcf-2">
          <mxGeometry relative="1" as="geometry" />
        </mxCell>
        <mxCell id="TTPus0jQ23hokHO_4xcf-9" value="&lt;font size=&quot;1&quot;&gt;validar orden&lt;/font&gt;" style="ellipse;whiteSpace=wrap;html=1;" vertex="1" parent="TTPus0jQ23hokHO_4xcf-1">
          <mxGeometry x="27" y="40" width="120" height="80" as="geometry" />
        </mxCell>
        <mxCell id="TTPus0jQ23hokHO_4xcf-10" value="include" style="text;html=1;align=center;verticalAlign=middle;whiteSpace=wrap;rounded=0;" vertex="1" parent="TTPus0jQ23hokHO_4xcf-1">
          <mxGeometry x="151" y="50" width="60" height="30" as="geometry" />
        </mxCell>
        <mxCell id="TTPus0jQ23hokHO_4xcf-11" value="include" style="text;html=1;align=center;verticalAlign=middle;whiteSpace=wrap;rounded=0;" vertex="1" parent="TTPus0jQ23hokHO_4xcf-1">
          <mxGeometry x="170" y="159" width="60" height="30" as="geometry" />
        </mxCell>
        <mxCell id="TTPus0jQ23hokHO_4xcf-12" value="include" style="text;html=1;align=center;verticalAlign=middle;whiteSpace=wrap;rounded=0;" vertex="1" parent="TTPus0jQ23hokHO_4xcf-1">
          <mxGeometry x="276" y="328" width="60" height="30" as="geometry" />
        </mxCell>
      </root>
    </mxGraphModel>
  </diagram>
</mxfile>
